<?xml version="1.0" standalone="no"?>
<!DOCTYPE svg PUBLIC "-//W3C//DTD SVG 20010904//EN"
 "http://www.w3.org/TR/2001/REC-SVG-20010904/DTD/svg10.dtd">
<svg version="1.0" xmlns="http://www.w3.org/2000/svg"
 width="300.000000pt" height="240.000000pt" viewBox="0 0 300.000000 240.000000"
 preserveAspectRatio="xMidYMid meet">
<metadata>
Created by potrace 1.10, written by Peter Selinger 2001-2011
</metadata>
<g transform="translate(0.000000,240.000000) scale(0.050000,-0.050000)"
fill="#ff0000" stroke="none">
<path d="M2893 3827 c-62 -41 -74 -58 -63 -94 35 -112 34 -129 -8 -152 -62
-33 -122 5 -122 78 0 62 -47 92 -107 69 -43 -16 -42 -55 5 -178 l38 -100 333
-5 333 -6 49 111 c60 136 61 162 6 177 -54 14 -123 -21 -110 -56 13 -34 -41
-111 -77 -111 -56 0 -93 82 -60 133 16 25 25 57 19 71 -8 22 -138 118 -154
115 -3 -1 -40 -24 -82 -52z"/>
<path d="M2220 3380 c0 -37 13 -40 160 -40 147 0 160 3 160 40 0 37 -13 40
-160 40 -147 0 -160 -3 -160 -40z"/>
<path d="M2640 3380 c0 -38 13 -40 327 -40 334 0 358 4 339 52 -19 52 -666 40
-666 -12z"/>
<path d="M3400 3380 c0 -37 13 -40 160 -40 147 0 160 3 160 40 0 37 -13 40
-160 40 -147 0 -160 -3 -160 -40z"/>
<path d="M2220 2820 l0 -440 150 0 150 0 0 171 0 171 175 -6 175 -6 6 -165 6
-165 149 0 149 0 0 440 0 440 -150 0 -150 0 0 -170 0 -170 -180 0 -180 0 0
170 0 170 -150 0 -150 0 0 -440z"/>
<path d="M3420 3170 l0 -90 150 0 150 0 0 90 0 90 -150 0 -150 0 0 -90z"/>
<path d="M3420 2680 l0 -300 150 0 150 0 0 300 0 300 -150 0 -150 0 0 -300z"/>
<path d="M2220 2025 l0 -235 585 0 c710 0 703 4 419 -223 -277 -222 -227 -219
-480 -30 l-221 165 -145 -6 -145 -6 347 -280 c191 -154 359 -287 373 -296 18
-11 147 83 397 288 l370 305 0 136 0 137 -620 0 -620 0 0 60 0 60 620 0 620 0
0 80 0 80 -750 0 -750 0 0 -235z"/>
<path d="M2949 1675 c-7 -19 -26 -35 -41 -35 -33 0 -37 -32 -7 -51 12 -7 18
-24 13 -37 -6 -16 13 -24 57 -24 36 0 62 8 56 17 -6 10 5 35 24 56 34 37 34
39 -1 39 -19 0 -47 16 -61 35 -25 33 -27 33 -40 0z"/>
</g>
</svg>
