<?xml version="1.0" standalone="no"?>
<!DOCTYPE svg PUBLIC "-//W3C//DTD SVG 20010904//EN"
 "http://www.w3.org/TR/2001/REC-SVG-20010904/DTD/svg10.dtd">
<svg version="1.0" xmlns="http://www.w3.org/2000/svg"
 width="920.000000pt" height="512.000000pt" viewBox="0 0 920.000000 512.000000"
 preserveAspectRatio="xMidYMid meet">
<metadata>
Created by potrace 1.16, written by Peter Selinger 2001-2019
</metadata>
<g transform="translate(0.000000,512.000000) scale(0.100000,-0.100000)"
fill="#000000" stroke="none">
<path d="M4330 5109 c-128 -13 -338 -56 -469 -95 -407 -124 -768 -341 -1071
-644 -618 -617 -872 -1477 -695 -2351 9 -46 33 -136 52 -199 273 -905 1035
-1594 1959 -1774 337 -65 719 -60 1053 13 860 190 1580 835 1864 1671 145 426
176 882 91 1324 -214 1101 -1142 1945 -2258 2055 -126 13 -401 12 -526 0z
m-710 -2191 l0 -271 28 39 c152 209 428 208 523 -1 17 -36 19 -73 19 -382 l0
-343 -230 0 -230 0 0 125 0 125 25 0 25 0 -1 153 c0 171 -11 220 -47 225 -31
5 -60 -22 -88 -83 -21 -44 -24 -65 -24 -172 l0 -123 25 0 25 0 0 -125 0 -125
-285 0 -285 0 0 125 0 125 55 0 55 0 0 365 0 365 -55 0 -55 0 0 125 0 125 260
0 260 0 0 -272z m2382 167 c-1 -55 -5 -126 -8 -157 l-6 -58 -271 -2 -271 -3
-13 -60 c-7 -33 -12 -69 -13 -79 0 -19 1 -19 23 2 12 11 49 33 82 49 55 26 70
28 175 28 108 0 119 -2 182 -32 163 -77 246 -237 219 -420 -39 -264 -253 -423
-568 -423 -114 0 -206 20 -300 66 -146 70 -216 165 -216 294 1 126 48 186 157
197 76 8 120 -3 155 -38 37 -36 47 -83 32 -147 -17 -68 -4 -98 49 -112 100
-27 187 59 197 195 9 111 -26 178 -102 195 -46 10 -83 -2 -110 -35 l-21 -25
-153 20 c-85 11 -155 21 -157 22 -1 2 24 143 57 313 32 171 58 311 59 313 0 1
186 1 413 0 l412 -3 -3 -100z m-1142 -90 l0 -105 -160 0 -160 0 0 105 0 105
160 0 160 0 0 -105z m-10 -475 l0 -310 55 0 55 0 0 -125 0 -125 -315 0 -315 0
0 125 0 125 55 0 55 0 0 185 0 185 -50 0 -50 0 0 125 0 125 255 0 255 0 0
-310z"/>
</g>
</svg>
